<svg xmlns="http://www.w3.org/2000/svg" viewBox="0 0 16 16">
  <g fill="none" fill-rule="evenodd">
    <path fill-rule="nonzero" d="M2.05208153,8.225 L4.82604076,5.45104076 C5.15798641,5.11909512 5.15798641,4.58090488 4.82604076,4.24895924 C4.49409512,3.91701359 3.95590488,3.91701359 3.62395924,4.24895924 L0.248959236,7.62395924 C-0.082986412,7.95590488 -0.082986412,8.49409512 0.248959236,8.82604076 L3.62395924,12.2010408 C3.95590488,12.5329864 4.49409512,12.5329864 4.82604076,12.2010408 C5.15798641,11.8690951 5.15798641,11.3309049 4.82604076,10.9989592 L2.05208153,8.225 Z"/>
    <path fill-rule="nonzero" d="M12.9520815,8.225 L15.7260408,5.45104076 C16.0579864,5.11909512 16.0579864,4.58090488 15.7260408,4.24895924 C15.3940951,3.91701359 14.8559049,3.91701359 14.5239592,4.24895924 L11.1489592,7.62395924 C10.8170136,7.95590488 10.8170136,8.49409512 11.1489592,8.82604076 L14.5239592,12.2010408 C14.8559049,12.5329864 15.3940951,12.5329864 15.7260408,12.2010408 C16.0579864,11.8690951 16.0579864,11.3309049 15.7260408,10.9989592 L12.9520815,8.225 L12.9520815,8.225 Z" transform="matrix(-1 0 0 1 26.875 0)"/>
    <path fill-rule="nonzero" d="M8.5438498,3.58143701 L5.5438498,12.581437 C5.3953992,13.0267888 5.63608519,13.5081608 6.08143701,13.6566114 C6.52678883,13.805062 7.0081608,13.564376 7.15661141,13.1190242 L10.1566114,4.11902421 C10.305062,3.67367239 10.064376,3.19230041 9.61902421,3.0438498 C9.17367239,2.8953992 8.69230041,3.13608519 8.5438498,3.58143701 Z"/>
  </g>
</svg>
