<svg xmlns="http://www.w3.org/2000/svg" viewBox="0 0 16 16">
  <path fill="#777" d="M1.65384615,3 C1.1015614,3 0.653846154,2.55228475 0.653846154,2 C0.653846154,1.44771525 1.1015614,1 1.65384615,1 L14.1538462,1 C14.7061309,1 15.1538462,1.44771525 15.1538462,2 C15.1538462,2.55228475 14.7061309,3 14.1538462,3 L1.65384615,3 Z M1.65384615,7 C1.1015614,7 0.653846154,6.55228475 0.653846154,6 C0.653846154,5.44771525 1.1015614,5 1.65384615,5 L14.1538462,5 C14.7061309,5 15.1538462,5.44771525 15.1538462,6 C15.1538462,6.55228475 14.7061309,7 14.1538462,7 L1.65384615,7 Z M1.5,11 C0.94771525,11 0.5,10.5522847 0.5,10 C0.5,9.44771525 0.94771525,9 1.5,9 L14,9 C14.5522847,9 15,9.44771525 15,10 C15,10.5522847 14.5522847,11 14,11 L1.5,11 Z M1.5,15 C0.94771525,15 0.5,14.5522847 0.5,14 C0.5,13.4477153 0.94771525,13 1.5,13 L10.1538462,13 C10.7061309,13 11.1538462,13.4477153 11.1538462,14 C11.1538462,14.5522847 10.7061309,15 10.1538462,15 L1.5,15 Z"/>
</svg>
