<svg xmlns="http://www.w3.org/2000/svg" viewBox="0 0 16 16">
  <path d="M1.5,3 C0.94771525,3 0.5,2.55228475 0.5,2 C0.5,1.44771525 0.94771525,1 1.5,1 L14,1 C14.5522847,1 15,1.44771525 15,2 C15,2.55228475 14.5522847,3 14,3 L1.5,3 Z M4.31227437,7 C3.86366762,7 3.5,6.55228475 3.5,6 C3.5,5.44771525 3.86366762,5 4.31227437,5 L11.3415718,5 C11.7901785,5 12.1538462,5.44771525 12.1538462,6 C12.1538462,6.55228475 11.7901785,7 11.3415718,7 L4.31227437,7 Z M1.5,11 C0.94771525,11 0.5,10.5522847 0.5,10 C0.5,9.44771525 0.94771525,9 1.5,9 L14,9 C14.5522847,9 15,9.44771525 15,10 C15,10.5522847 14.5522847,11 14,11 L1.5,11 Z M4.31227437,15 C3.86366762,15 3.5,14.5522847 3.5,14 C3.5,13.4477153 3.86366762,13 4.31227437,13 L11.3415718,13 C11.7901785,13 12.1538462,13.4477153 12.1538462,14 C12.1538462,14.5522847 11.7901785,15 11.3415718,15 L4.31227437,15 Z"/>
</svg>
