<svg xmlns="http://www.w3.org/2000/svg" viewBox="0 0 16 16">
  <path d="M14.0952381,14.984127 C13.4285681,15.661379 12.6190524,16 11.6666667,16 C10.714281,16 9.90476524,15.66667 9.23809524,15 L2.3968254,8.15873016 C1.46560381,7.22750857 1,6.10053571 1,4.77777778 C1,3.45501984 1.46560381,2.32804698 2.3968254,1.3968254 C3.32804698,0.46560381 4.45237437,-1.77635684e-15 5.76984127,0 C7.08730817,-1.77635684e-15 8.21163556,0.46560381 9.14285714,1.3968254 L14.7142857,6.96825397 C14.8624346,7.11640286 14.9365079,7.29629524 14.9365079,7.50793651 C14.9365079,7.71957778 14.8624346,7.89947016 14.7142857,8.04761905 C14.5661368,8.19576794 14.3862444,8.26984127 14.1746032,8.26984127 C13.9629619,8.26984127 13.7830695,8.19576794 13.6349206,8.04761905 L8.06349206,2.47619048 C7.42856825,1.84126667 6.66402563,1.52380952 5.76984127,1.52380952 C4.8756569,1.52380952 4.11111429,1.84126667 3.47619048,2.47619048 C2.84126667,3.11111429 2.52380952,3.87830238 2.52380952,4.77777778 C2.52380952,5.67725317 2.84126667,6.44444127 3.47619048,7.07936508 L10.3015873,13.9206349 C10.6825416,14.2910071 11.1375635,14.4761905 11.6666667,14.4761905 C12.1957698,14.4761905 12.6455008,14.2883617 13.015873,13.9126984 C13.3862452,13.5370352 13.5714286,13.0846587 13.5714286,12.5555556 C13.5714286,12.0264524 13.3862452,11.5767214 13.015873,11.2063492 L6.42857143,4.61904762 C6.31216873,4.50264492 6.17460397,4.44444444 6.01587302,4.44444444 C5.85714206,4.44444444 5.72222278,4.49999944 5.61111111,4.61111111 C5.49999944,4.72222278 5.44444444,4.85978754 5.44444444,5.02380952 C5.44444444,5.18783151 5.49735397,5.32275079 5.6031746,5.42857143 L10.9365079,10.7460317 C11.0846568,10.9047627 11.1587302,11.0873006 11.1587302,11.2936508 C11.1587302,11.500001 11.0846568,11.6772479 10.9365079,11.8253968 C10.788359,11.9735457 10.6084667,12.047619 10.3968254,12.047619 C10.1851841,12.047619 10.0052917,11.9735457 9.85714286,11.8253968 L4.53968254,6.50793651 C4.12698206,6.09523603 3.92063492,5.60053198 3.92063492,5.02380952 C3.92063492,4.44708706 4.12433659,3.95238302 4.53174603,3.53968254 C4.93915548,3.12698206 5.43385952,2.92063492 6.01587302,2.92063492 C6.59788651,2.92063492 7.09523603,3.12698206 7.50793651,3.53968254 L14.0952381,10.1269841 C14.7619081,10.8042362 15.0952381,11.6163974 15.0952381,12.5634921 C15.0952381,13.5105867 14.7619081,14.317457 14.0952381,14.984127 Z"/>
</svg>
