<svg xmlns="http://www.w3.org/2000/svg" viewBox="0 0 16 16">
  <path fill="#777" d="M5.62318292,0.1 C7.97951962,0.1 9.62285655,1.65754417 9.55424266,3.80095571 C9.52367223,4.75593753 9.23246291,5.54062156 8.66812477,6.13353726 C9.67283082,6.78414818 10.2667314,7.87273484 10.2249198,9.17887624 C10.1505957,11.5006692 8.53564986,12.8158417 5.20059052,12.8158417 L1.4,12.8158417 C0.84771525,12.8158417 0.4,12.3681264 0.4,11.8158417 L0.4,6.47792053 L0.400199617,6.45810396 C0.400066747,6.45139236 0.4,6.44466455 0.4,6.43792114 L0.4,1.1 C0.4,0.54771525 0.84771525,0.1 1.4,0.1 L5.62318292,0.1 Z M6.29386011,7.47792053 L2.4,7.47792053 L2.4,10.8158417 L5.20059052,10.8158417 C7.52412695,10.8158417 8.18882181,10.2745304 8.2259438,9.11488596 C8.25711813,8.14103916 7.55747356,7.47792053 6.29386011,7.47792053 Z M5.62318292,2.1 L2.4,2.1 L2.4,5.43792114 L4.52991333,5.43792114 C6.85344977,5.43792114 7.51814462,4.89660988 7.55526661,3.73696543 C7.58644094,2.76311862 6.88679637,2.1 5.62318292,2.1 Z" transform="translate(3 1.5)"/>
</svg>
