<svg xmlns="http://www.w3.org/2000/svg" viewBox="0 0 16 16">
  <path d="M11.4315389,7.72601561 C12.3575663,8.35347355 12.9038432,9.37963131 12.8646003,10.6055303 C12.793554,12.824928 11.2456564,14.085498 8.07702637,14.085498 L4.5,14.085498 C3.94771525,14.085498 3.5,13.6377828 3.5,13.085498 L3.5,8.06157227 C3.5,8.05528413 3.50005804,8.04900954 3.50017361,8.04274902 C3.50005804,8.0364885 3.5,8.03021392 3.5,8.02392578 L3.5,3 C3.5,2.44771525 3.94771525,2 4.5,2 L8.4747604,2 C10.724628,2 12.2990537,3.49223056 12.2333747,5.54395803 C12.2049844,6.430837 11.9407661,7.16460757 11.4315389,7.72601561 Z M5.5,7.02392578 L7.44580078,7.02392578 C9.60290793,7.02392578 10.2005545,6.53721698 10.2343987,5.47996775 C10.2626381,4.59780501 9.63190473,4 8.4747604,4 L5.5,4 L5.5,7.02392578 Z M5.5,9.06157227 L5.5,12.085498 L8.07702637,12.085498 C10.2341335,12.085498 10.8317801,11.5987892 10.8656243,10.54154 C10.8938637,9.65937728 10.2631303,9.06157227 9.10598598,9.06157227 L5.5,9.06157227 Z"/>
</svg>
