<svg xmlns="http://www.w3.org/2000/svg" viewBox="0 0 16 16">
  <g fill="none" fill-rule="evenodd">
    <path fill="#777" fill-rule="nonzero" d="M7 5C6.44771525 5 6 4.55228475 6 4 6 3.44771525 6.44771525 3 7 3L15 3C15.5522847 3 16 3.44771525 16 4 16 4.55228475 15.5522847 5 15 5L7 5zM7 13.5C6.44771525 13.5 6 13.0522847 6 12.5 6 11.9477153 6.44771525 11.5 7 11.5L15 11.5C15.5522847 11.5 16 11.9477153 16 12.5 16 13.0522847 15.5522847 13.5 15 13.5L7 13.5z"/>
    <circle cx="2" cy="4" r="2" fill="#777"/>
    <circle cx="2" cy="12.5" r="2" fill="#777"/>
  </g>
</svg>
