<svg xmlns="http://www.w3.org/2000/svg" viewBox="0 0 16 16">
  <g fill="none" fill-rule="evenodd">
    <path fill-rule="nonzero" d="M7.02563477,4.47692871 C6.47335002,4.47692871 6.02563477,4.02921346 6.02563477,3.47692871 C6.02563477,2.92464396 6.47335002,2.47692871 7.02563477,2.47692871 L15.0256348,2.47692871 C15.5779195,2.47692871 16.0256348,2.92464396 16.0256348,3.47692871 C16.0256348,4.02921346 15.5779195,4.47692871 15.0256348,4.47692871 L7.02563477,4.47692871 Z M7,14.5 C6.44771525,14.5 6,14.0522847 6,13.5 C6,12.9477153 6.44771525,12.5 7,12.5 L15,12.5 C15.5522847,12.5 16,12.9477153 16,13.5 C16,14.0522847 15.5522847,14.5 15,14.5 L7,14.5 Z"/>
    <circle cx="2" cy="3.5" r="2" />
    <circle cx="2" cy="13.5" r="2" />
  </g>
</svg>
