<svg xmlns="http://www.w3.org/2000/svg" viewBox="0 0 16 16">
  <path d="M6.09937251,8 L10.1179126,8 L8.10864258,3.19429976 L6.09937251,8 L6.09937251,8 Z M5.47222039,9.5 L4.69195471,11.3662115 C4.53217473,11.7483676 4.09284879,11.928639 3.71069276,11.768859 C3.32853672,11.609079 3.14826531,11.1697531 3.30804529,10.7875971 L7.41668787,0.960692758 C7.67350959,0.346435747 8.54377556,0.346435747 8.80059729,0.960692758 L12.9092399,10.7875971 C13.0690198,11.1697531 12.8887484,11.609079 12.5065924,11.768859 C12.1244364,11.928639 11.6851104,11.7483676 11.5253304,11.3662115 L10.7261797,9.45483138 C10.6460316,9.4840562 10.5594969,9.5 10.4692383,9.5 L5.47222039,9.5 Z M3,15 L3,13.5 L13,13.5 L13,15 L3,15 Z"/>
</svg>
