<svg xmlns="http://www.w3.org/2000/svg" viewBox="0 0 16 16">
  <path fill="#777" d="M12.9,13.5 C13.3970563,13.5 13.8,13.9029437 13.8,14.4 C13.8,14.8970563 13.3970563,15.3 12.9,15.3 L12.9,15.3 L2.9,15.3 C2.40294373,15.3 2,14.8970563 2,14.4 C2,13.9029437 2.40294373,13.5 2.9,13.5 L2.9,13.5 Z M8.78442447,0.942571325 L8.83898823,1.05283131 L12.9476308,10.8797356 C13.1393668,11.3383228 12.9230411,11.865514 12.4644538,12.0572499 C12.0411425,12.234237 11.5593759,12.0635265 11.3369572,11.6755248 L11.2869395,11.574073 L10.5380696,9.78419005 L10.4547865,9.79598711 L10.4547865,9.79598711 L10.3692383,9.8 L5.472,9.8 L4.73034565,11.574073 C4.5533586,11.9973843 4.09053994,12.2142715 3.65969304,12.0943285 L3.55283131,12.0572499 C3.12952001,11.8802629 2.91263275,11.4174442 3.03257582,10.9865973 L3.06965435,10.8797356 L7.17829693,1.05283131 C7.47026268,0.354518076 8.42291298,0.317764748 8.78442447,0.942571325 Z M8.00864258,3.73315971 L6.224,8 L9.792,8 L8.00864258,3.73315971 Z"/>
</svg>
