<svg xmlns="http://www.w3.org/2000/svg" viewBox="0 0 16 16">
  <path d="M4.4,8.9 L4.4,13.5 C4.4,13.9970563 3.99705627,14.4 3.5,14.4 C3.00294373,14.4 2.6,13.9970563 2.6,13.5 L2.6,8.9 L1,8.9 C0.502943725,8.9 0.1,8.49705627 0.1,8 C0.1,7.50294373 0.502943725,7.1 1,7.1 L6,7.1 C6.49705627,7.1 6.9,7.50294373 6.9,8 C6.9,8.49705627 6.49705627,8.9 6,8.9 L4.4,8.9 Z M10.9,3.4 L10.9,13.5769231 C10.9,14.0739794 10.4970563,14.4769231 10,14.4769231 C9.50294373,14.4769231 9.1,14.0739794 9.1,13.5769231 L9.1,3.4 L5,3.4 C4.50294373,3.4 4.1,2.99705627 4.1,2.5 C4.1,2.00294373 4.50294373,1.6 5,1.6 L15,1.6 C15.4970563,1.6 15.9,2.00294373 15.9,2.5 C15.9,2.99705627 15.4970563,3.4 15,3.4 L10.9,3.4 Z"/>
</svg>
