<svg xmlns="http://www.w3.org/2000/svg" viewBox="0 0 16 16">
  <g fill="none" fill-rule="evenodd">
    <path fill="#777" fill-rule="nonzero" d="M14,2.25 C14.9664983,2.25 15.75,3.03350169 15.75,4 L15.75,13 C15.75,13.9664983 14.9664983,14.75 14,14.75 L2,14.75 C1.03350169,14.75 0.25,13.9664983 0.25,13 L0.25,4 C0.25,3.03350169 1.03350169,2.25 2,2.25 L14,2.25 Z M14,3.75 L2,3.75 C1.86192881,3.75 1.75,3.86192881 1.75,4 L1.75,10.145 L5.62804621,6.62956206 C5.84351608,6.43422757 6.17959132,6.4633009 6.35831503,6.69273643 L9.57419949,10.8211096 L11.5087535,9.49128166 C11.7046328,9.35663268 11.9682313,9.37849766 12.1392484,9.54357996 L14.25,11.581 L14.25,4 C14.25,3.86192881 14.1380712,3.75 14,3.75 Z"/>
    <circle cx="11.5" cy="6.5" r="1.5" fill="#777"/>
  </g>
</svg>
