<svg xmlns="http://www.w3.org/2000/svg" viewBox="0 0 16 16">
  <path d="M7.71782351,13 L8.75,13 C9.16421356,13 9.5,13.3357864 9.5,13.75 C9.5,14.1642136 9.16421356,14.5 8.75,14.5 L4.75,14.5 C4.33578644,14.5 4,14.1642136 4,13.75 C4,13.3357864 4.33578644,13 4.75,13 L5.88217649,13 L7.78217649,3.5 L6.75,3.5 C6.33578644,3.5 6,3.16421356 6,2.75 C6,2.33578644 6.33578644,2 6.75,2 L10.75,2 C11.1642136,2 11.5,2.33578644 11.5,2.75 C11.5,3.16421356 11.1642136,3.5 10.75,3.5 L9.61782351,3.5 L7.71782351,13 Z"/>
</svg>
