<svg xmlns="http://www.w3.org/2000/svg" viewBox="0 0 16 16">
  <path d="M13.015873,9.74603175 C13.2486784,9.74603175 13.4497346,9.83068698 13.6190476,10 C13.7883606,10.169313 13.8730159,10.3730147 13.8730159,10.6111111 C13.8730159,10.8492075 13.7883606,11.0502637 13.6190476,11.2142857 C13.4497346,11.3783077 13.2486784,11.4603175 13.015873,11.4603175 L11.6666667,11.4603175 L11.6666667,13.7936508 C11.6666667,13.9523817 11.6269845,14.0978829 11.547619,14.2301587 C11.4682536,14.3624345 11.3624345,14.4656081 11.2301587,14.5396825 C11.0978829,14.613757 10.9576727,14.6507937 10.8095238,14.6507937 C10.5661363,14.6507937 10.3624347,14.5661384 10.1984127,14.3968254 C10.0343907,14.2275124 9.95238095,14.0264562 9.95238095,13.7936508 L9.95238095,11.4603175 L5.92063492,11.4603175 L5.92063492,13.7936508 C5.92063492,14.0264562 5.83862516,14.2275124 5.67460317,14.3968254 C5.51058119,14.5661384 5.309525,14.6507937 5.07142857,14.6507937 C4.83333214,14.6507937 4.62963048,14.5661384 4.46031746,14.3968254 C4.29100444,14.2275124 4.20634921,14.0264562 4.20634921,13.7936508 L4.20634921,11.4603175 L2.85714286,11.4603175 C2.62433746,11.4603175 2.42328127,11.3783077 2.25396825,11.2142857 C2.08465524,11.0502637 2,10.8492075 2,10.6111111 C2,10.3730147 2.08465524,10.169313 2.25396825,10 C2.42328127,9.83068698 2.62433746,9.74603175 2.85714286,9.74603175 L4.20634921,9.74603175 L4.20634921,5.9047619 L2.85714286,5.9047619 C2.62433746,5.9047619 2.42328127,5.82010667 2.25396825,5.65079365 C2.08465524,5.48148063 2,5.27777897 2,5.03968254 C2,4.80158611 2.08465524,4.60052992 2.25396825,4.43650794 C2.42328127,4.27248595 2.62433746,4.19047619 2.85714286,4.19047619 L4.20634921,4.19047619 L4.20634921,1.85714286 C4.20634921,1.6984119 4.24603135,1.55291071 4.32539683,1.42063492 C4.4047623,1.28835913 4.51058135,1.18518556 4.64285714,1.11111111 C4.77513294,1.03703667 4.91534317,1 5.06349206,1 C5.30687952,1 5.51058119,1.08465524 5.67460317,1.25396825 C5.83862516,1.42328127 5.92063492,1.62433746 5.92063492,1.85714286 L5.92063492,4.19047619 L9.95238095,4.19047619 L9.95238095,1.85714286 C9.95238095,1.62433746 10.0343907,1.42328127 10.1984127,1.25396825 C10.3624347,1.08465524 10.5634909,1 10.8015873,1 C11.0396837,1 11.2433854,1.08465524 11.4126984,1.25396825 C11.5820114,1.42328127 11.6666667,1.62433746 11.6666667,1.85714286 L11.6666667,4.19047619 L13.015873,4.19047619 C13.2486784,4.19047619 13.4497346,4.27248595 13.6190476,4.43650794 C13.7883606,4.60052992 13.8730159,4.80158611 13.8730159,5.03968254 C13.8730159,5.27777897 13.7883606,5.48148063 13.6190476,5.65079365 C13.4497346,5.82010667 13.2486784,5.9047619 13.015873,5.9047619 L11.6666667,5.9047619 L11.6666667,9.74603175 L13.015873,9.74603175 Z M5.92063492,9.74603175 L9.95238095,9.74603175 L9.95238095,5.9047619 L5.92063492,5.9047619 L5.92063492,9.74603175 Z"/>
</svg>
