<svg xmlns="http://www.w3.org/2000/svg" viewBox="0 0 16 16">
  <path d="M2.61904762,5.6031746 L5.03174603,8.01587302 C5.17989492,8.1640219 5.25396825,8.34391429 5.25396825,8.55555556 C5.25396825,8.76719683 5.17989492,8.94708921 5.03174603,9.0952381 C4.88359714,9.24338698 4.70370476,9.31746032 4.49206349,9.31746032 C4.28042222,9.31746032 4.10052984,9.24338698 3.95238095,9.0952381 L1.53968254,6.66666667 C0.862430476,5.99999667 0.523809524,5.19312643 0.523809524,4.24603175 C0.523809524,3.29893706 0.859785,2.49206683 1.53174603,1.82539683 C2.20370706,1.15872683 3.01322278,0.825396825 3.96031746,0.825396825 C4.90741214,0.825396825 5.71428238,1.15872683 6.38095238,1.82539683 L8.80952381,4.25396825 C8.9576727,4.40211714 9.03174603,4.58200952 9.03174603,4.79365079 C9.03174603,5.00529206 8.9576727,5.18518444 8.80952381,5.33333333 C8.66137492,5.48148222 8.48148254,5.55555556 8.26984127,5.55555556 C8.0582,5.55555556 7.87830762,5.48148222 7.73015873,5.33333333 L5.3015873,2.9047619 C4.93121508,2.53438968 4.4841296,2.34920635 3.96031746,2.34920635 C3.43650532,2.34920635 2.98677437,2.53438968 2.61111111,2.9047619 C2.23544786,3.27513413 2.04761905,3.72486508 2.04761905,4.25396825 C2.04761905,4.78307143 2.23809333,5.23280238 2.61904762,5.6031746 Z M14.4603175,9.9047619 C15.1375695,10.5714319 15.4761905,11.3783021 15.4761905,12.3253968 C15.4761905,13.2724915 15.140215,14.0820072 14.468254,14.7539683 C13.7962929,15.4259293 12.9867772,15.7619048 12.0396825,15.7619048 C11.0925879,15.7619048 10.2857176,15.4285748 9.61904762,14.7619048 L7.19047619,12.3333333 C7.09523762,12.2380948 7.02910071,12.1243393 6.99206349,11.9920635 C6.95502627,11.8597877 6.95502627,11.7275139 6.99206349,11.5952381 C7.02910071,11.4629623 7.09523762,11.3492068 7.19047619,11.2539683 C7.33862508,11.1058194 7.51851746,11.031746 7.73015873,11.031746 C7.9418,11.031746 8.12169238,11.1058194 8.26984127,11.2539683 L10.6984127,13.6825397 C11.0687849,14.0529119 11.5158704,14.2380952 12.0396825,14.2380952 C12.5634947,14.2380952 13.0132256,14.0529119 13.3888889,13.6825397 C13.7645521,13.3121675 13.952381,12.8624365 13.952381,12.3333333 C13.952381,11.8042302 13.7619067,11.3544992 13.3809524,10.984127 L10.968254,8.55555556 C10.8624333,8.46031698 10.793651,8.34656151 10.7619048,8.21428571 C10.7301586,8.08200992 10.7301586,7.95238159 10.7619048,7.82539683 C10.793651,7.69841206 10.8624333,7.58201111 10.968254,7.47619048 C11.1164029,7.32804159 11.2936498,7.25396825 11.5,7.25396825 C11.7063502,7.25396825 11.8888881,7.32804159 12.047619,7.47619048 L14.4603175,9.9047619 Z M10.6984127,10.984127 C10.5502638,11.1322759 10.3703714,11.2063492 10.1587302,11.2063492 C9.94708889,11.2063492 9.76719651,11.1322759 9.61904762,10.984127 L5.3015873,6.66666667 C5.15343841,6.51851778 5.07936508,6.34127087 5.07936508,6.13492063 C5.07936508,5.9285704 5.15343841,5.75132349 5.3015873,5.6031746 C5.44973619,5.45502571 5.62962857,5.38095238 5.84126984,5.38095238 C6.05291111,5.38095238 6.23280349,5.45502571 6.38095238,5.6031746 L10.6984127,9.9047619 C10.8465616,10.0529108 10.9206349,10.2328032 10.9206349,10.4444444 C10.9206349,10.6560857 10.8465616,10.8359781 10.6984127,10.984127 Z"/>
</svg>
