<svg xmlns="http://www.w3.org/2000/svg" width="16" height="16" viewBox="0 0 16 16">
  <path fill="#777" d="M7.02563477 4.48C6.47335002 4.48 6.02563477 4.03228475 6.02563477 3.48 6.02563477 2.92771525 6.47335002 2.48 7.02563477 2.48L15.0256348 2.48C15.5779195 2.48 16.0256348 2.92771525 16.0256348 3.48 16.0256348 4.03228475 15.5779195 4.48 15.0256348 4.48L7.02563477 4.48zM7.02563477 14.48C6.47335002 14.48 6.02563477 14.0322847 6.02563477 13.48 6.02563477 12.9277153 6.47335002 12.48 7.02563477 12.48L15.0256348 12.48C15.5779195 12.48 16.0256348 12.9277153 16.0256348 13.48 16.0256348 14.0322847 15.5779195 14.48 15.0256348 14.48L7.02563477 14.48zM2.12180176 2.99041179L2.12180176 5.41223145C2.12180176 5.7436023 2.39043091 6.01223145 2.72180176 6.01223145 3.05317261 6.01223145 3.32180176 5.7436023 3.32180176 5.41223145L3.32180176 2C3.32180176 1.5492953 2.84344297 1.25950142 2.4439697 1.46820178L.722167947 2.36773791C.428463898 2.52118032.314759371 2.88366414.468201777 3.17736819.621644183 3.47107223.984128004 3.58477676 1.27783205 3.43133436L2.12180176 2.99041179zM2.53939053 14.5759145L2.54153441 14.5745196C3.61804377 13.8741294 4.00301514 13.4961259 4.00301514 12.7077637 4.00301514 11.574157 3.30849646 10.9311644 2.16183243 10.985762 1.07613064 11.0368524.425634766 11.6638618.425634766 12.7077637.425634766 13.0391345.694263916 13.3077637 1.02563477 13.3077637 1.35700562 13.3077637 1.62563477 13.0391345 1.62563477 12.7077637 1.62563477 12.3278374 1.75162815 12.206393 2.218572 12.1844198 2.68910283 12.1620159 2.80301514 12.2674771 2.80301514 12.7077637 2.80301514 12.9031661 2.59290446 13.1094738 1.88711549 13.5686688.810212256 14.2693158.425634766 14.6469193.425634766 15.43396.425634766 15.7653308.694263916 16.03396 1.02563477 16.03396L3.66412354 16.03396C3.99549439 16.03396 4.26412354 15.7653308 4.26412354 15.43396 4.26412354 15.1025891 3.99549439 14.83396 3.66412354 14.83396L2.15776533 14.83396C2.26483078 14.7576268 2.39115378 14.6723592 2.53939053 14.5759145z"/>
</svg>
