<svg xmlns="http://www.w3.org/2000/svg" viewBox="0 0 16 16">
  <path fill="#777" d="M7 5C6.44771525 5 6 4.55228475 6 4 6 3.44771525 6.44771525 3 7 3L15 3C15.5522847 3 16 3.44771525 16 4 16 4.55228475 15.5522847 5 15 5L7 5zM7 13.5C6.44771525 13.5 6 13.0522847 6 12.5 6 11.9477153 6.44771525 11.5 7 11.5L15 11.5C15.5522847 11.5 16 11.9477153 16 12.5 16 13.0522847 15.5522847 13.5 15 13.5L7 13.5zM2.12180176 3.49122306L2.12180176 5.91304271C2.12180176 6.24441356 2.39043091 6.51304271 2.72180176 6.51304271 3.05317261 6.51304271 3.32180176 6.24441356 3.32180176 5.91304271L3.32180176 2.50081127C3.32180176 2.05010656 2.84344297 1.76031269 2.4439697 1.96901304L.722167947 2.86854917C.428463898 3.02199158.314759371 3.3844754.468201777 3.67817945.621644183 3.9718835.984128004 4.08558803 1.27783205 3.93214562L2.12180176 3.49122306zM2.53939053 13.5933699L2.54153441 13.591975C3.61804377 12.8915848 4.00301514 12.5135813 4.00301514 11.725219 4.00301514 10.5916124 3.30849646 9.94861981 2.16183243 10.0032174 1.07613064 10.0543078.425634766 10.6813172.425634766 11.725219.425634766 12.0565899.694263916 12.325219 1.02563477 12.325219 1.35700562 12.325219 1.62563477 12.0565899 1.62563477 11.725219 1.62563477 11.3452927 1.75162815 11.2238484 2.218572 11.2018752 2.68910283 11.1794713 2.80301514 11.2849325 2.80301514 11.725219 2.80301514 11.9206215 2.59290446 12.1269292 1.88711549 12.5861242.810212256 13.2867712.425634766 13.6643747.425634766 14.4514153.425634766 14.7827862.694263916 15.0514153 1.02563477 15.0514153L3.66412354 15.0514153C3.99549439 15.0514153 4.26412354 14.7827862 4.26412354 14.4514153 4.26412354 14.1200445 3.99549439 13.8514153 3.66412354 13.8514153L2.15776533 13.8514153C2.26483078 13.7750822 2.39115378 13.6898146 2.53939053 13.5933699z"/>
</svg>
