<svg xmlns="http://www.w3.org/2000/svg" viewBox="0 0 16 16">
  <path d="M7.02563477 3.47692871C6.47335002 3.47692871 6.02563477 3.02921346 6.02563477 2.47692871 6.02563477 1.92464396 6.47335002 1.47692871 7.02563477 1.47692871L15.0256348 1.47692871C15.5779195 1.47692871 16.0256348 1.92464396 16.0256348 2.47692871 16.0256348 3.02921346 15.5779195 3.47692871 15.0256348 3.47692871L7.02563477 3.47692871zM7.02563477 13.4769287C6.47335002 13.4769287 6.02563477 13.0292135 6.02563477 12.4769287 6.02563477 11.924644 6.47335002 11.4769287 7.02563477 11.4769287L15.0256348 11.4769287C15.5779195 11.4769287 16.0256348 11.924644 16.0256348 12.4769287 16.0256348 13.0292135 15.5779195 13.4769287 15.0256348 13.4769287L7.02563477 13.4769287zM2.12180176 1.99041179L2.12180176 4.41223145C2.12180176 4.7436023 2.39043091 5.01223145 2.72180176 5.01223145 3.05317261 5.01223145 3.32180176 4.7436023 3.32180176 4.41223145L3.32180176 1C3.32180176.549295296 2.84344297.259501422 2.4439697.468201777L.722167947 1.36773791C.428463898 1.52118032.314759371 1.88366414.468201777 2.17736819.621644183 2.47107223.984128004 2.58477676 1.27783205 2.43133436L2.12180176 1.99041179zM2.53939053 13.5759145L2.54153441 13.5745196C3.61804377 12.8741294 4.00301514 12.4961259 4.00301514 11.7077637 4.00301514 10.574157 3.30849646 9.93116444 2.16183243 9.98576199 1.07613064 10.0368524.425634766 10.6638618.425634766 11.7077637.425634766 12.0391345.694263916 12.3077637 1.02563477 12.3077637 1.35700562 12.3077637 1.62563477 12.0391345 1.62563477 11.7077637 1.62563477 11.3278374 1.75162815 11.206393 2.218572 11.1844198 2.68910283 11.1620159 2.80301514 11.2674771 2.80301514 11.7077637 2.80301514 11.9031661 2.59290446 12.1094738 1.88711549 12.5686688.810212256 13.2693158.425634766 13.6469193.425634766 14.43396.425634766 14.7653308.694263916 15.03396 1.02563477 15.03396L3.66412354 15.03396C3.99549439 15.03396 4.26412354 14.7653308 4.26412354 14.43396 4.26412354 14.1025891 3.99549439 13.83396 3.66412354 13.83396L2.15776533 13.83396C2.26483078 13.7576268 2.39115378 13.6723592 2.53939053 13.5759145z"/>
</svg>
