<svg xmlns="http://www.w3.org/2000/svg" viewBox="0 0 16 16">
  <path d="M2,3 C1.44771525,3 1,2.55228475 1,2 C1,1.44771525 1.44771525,1 2,1 L14.5,1 C15.0522847,1 15.5,1.44771525 15.5,2 C15.5,2.55228475 15.0522847,3 14.5,3 L2,3 Z M8.73076923,7 C8.17848448,7 7.73076923,6.55228475 7.73076923,6 C7.73076923,5.44771525 8.17848448,5 8.73076923,5 L14.5,5 C15.0522847,5 15.5,5.44771525 15.5,6 C15.5,6.55228475 15.0522847,7 14.5,7 L8.73076923,7 Z M8.73076923,11 C8.17848448,11 7.73076923,10.5522847 7.73076923,10 C7.73076923,9.44771525 8.17848448,9 8.73076923,9 L14.5,9 C15.0522847,9 15.5,9.44771525 15.5,10 C15.5,10.5522847 15.0522847,11 14.5,11 L8.73076923,11 Z M2,15 C1.44771525,15 1,14.5522847 1,14 C1,13.4477153 1.44771525,13 2,13 L14.5,13 C15.0522847,13 15.5,13.4477153 15.5,14 C15.5,14.5522847 15.0522847,15 14.5,15 L2,15 Z M5.35714286,5.25 C5.4563497,5.25 5.54067426,5.28472188 5.61011905,5.35416667 C5.67956384,5.42361146 5.71428571,5.50793601 5.71428571,5.60714286 L5.71428571,10.6071429 C5.71428571,10.7063497 5.67956384,10.7906743 5.61011905,10.860119 C5.54067426,10.9295638 5.4563497,10.9642857 5.35714286,10.9642857 C5.25132222,10.9642857 5.16865109,10.9279104 5.10912698,10.8551587 L2.60912698,8.35515873 C2.5363753,8.29563462 2.5,8.21296349 2.5,8.10714286 C2.5,8.00132222 2.5363753,7.91865109 2.60912698,7.85912698 L5.10912698,5.35912698 C5.16865109,5.2863753 5.25132222,5.25 5.35714286,5.25 Z"/>
</svg>
