<svg xmlns="http://www.w3.org/2000/svg" viewBox="0 0 16 16">
  <g fill="none" fill-rule="evenodd">
    <path fill="#777" fill-rule="nonzero" d="M13.0820866,6.5 C13.5391464,6.5 13.9824107,6.67980283 14.3122768,7.0095634 L14.9905253,7.68779695 C15.6698398,8.36722017 15.6698398,9.46870152 14.9904405,10.1481009 L10.3013715,14.8371698 L9.96544639,14.9491472 L8.55038161,15.4208421 C8.31069469,15.4863946 8.31069469,15.4863946 8.05974629,15.5 C7.00818088,15.5 6.23940922,14.4692814 6.58015098,13.4466763 L7.16282583,11.6986332 L11.8518997,7.00957512 C12.1816281,6.67984668 12.6249718,6.5 13.0820866,6.5 Z M13.0820866,8 C13.0207225,8 12.9593734,8.02342175 12.9125599,8.07023529 L8.47387527,12.5089049 L8.00317743,13.9210134 C7.98973578,13.9613534 8.02090484,14 8.05974629,14 C8.06601007,14 8.07246866,13.998996 8.07898719,13.9968381 L9.49109568,13.5261253 L13.9297803,9.08744072 C14.0234074,8.99381364 14.0234074,8.8420143 13.9297803,8.74837224 L13.2516283,8.07023529 C13.2047998,8.02342175 13.1434507,8 13.0820866,8 Z M4.5,5.75 C4.08578644,5.75 3.75,5.41421356 3.75,5 C3.75,4.58578644 4.08578644,4.25 4.5,4.25 L8,4.25 C8.41421356,4.25 8.75,4.58578644 8.75,5 C8.75,5.41421356 8.41421356,5.75 8,5.75 L4.5,5.75 Z M4.53381348,13.25 C4.94802704,13.25 5.28381348,13.5857864 5.28381348,14 C5.28381348,14.4142136 4.94802704,14.75 4.53381348,14.75 L4,14.75 C2.48121694,14.75 1.25,13.5187831 1.25,12 L1.25,4 C1.25,2.48121694 2.48121694,1.25 4,1.25 L12,1.25 C13.5187837,1.25 14.7500008,2.48121709 14.75,4.0000004 C14.7499998,4.41421396 14.4142132,4.75000022 13.9999996,4.75 C13.585786,4.74999978 13.2499998,4.41421316 13.25,3.9999996 C13.2500004,3.30964391 12.6903565,2.75 12,2.75 L4,2.75 C3.30964406,2.75 2.75,3.30964406 2.75,4 L2.75,12 C2.75,12.6903559 3.30964406,13.25 4,13.25 L4.53381348,13.25 Z"/>
    <circle cx="10.25" cy="5" r="1" fill="#777"/>
  </g>
</svg>
