<svg xmlns="http://www.w3.org/2000/svg" viewBox="0 0 16 16">
  <path fill-rule="evenodd" d="M6.91860659,5.74612405 C6.94014654,5.80612722 6.95433165,5.86988356 6.95999646,5.93641053 C6.96148781,5.95392486 6.9631842,5.97622626 6.9649994,6.00311282 C6.9880671,6.16542273 7,6.33131782 7,6.5 C7,6.59018586 6.99658898,6.67957503 6.98988891,6.76804554 C6.99360125,7.69054552 6.90463658,8.69737145 6.66848153,9.67598068 C6.06830768,12.1630572 4.64914191,13.7500432 2.23820848,13.7500432 C1.82399492,13.7500432 1.48820848,13.4142568 1.48820848,13.0000432 C1.48820848,12.5858296 1.82399492,12.2500432 2.23820848,12.2500432 C3.74959798,12.2500432 4.66331066,11.3101168 5.14081312,9.59234614 C4.65141988,9.85256123 4.09292803,10 3.5,10 C1.56700338,10 0,8.43299662 0,6.5 C8.8817842e-16,4.56700338 1.56700338,3 3.5,3 C5.17418245,3 6.57381805,4.17547476 6.91860659,5.74612405 L6.91860659,5.74612405 Z M15.9692568,6.96593945 C15.9602145,7.83349194 15.8678555,8.76691084 15.6484815,9.67598068 C15.0483077,12.1630572 13.6291419,13.7500432 11.2182085,13.7500432 C10.8039949,13.7500432 10.4682085,13.4142568 10.4682085,13.0000432 C10.4682085,12.5858296 10.8039949,12.2500432 11.2182085,12.2500432 C12.7259714,12.2500432 13.6389223,11.3146221 14.1173683,9.60469805 C13.6336144,9.85722205 13.083481,10 12.5,10 C10.5670034,10 9,8.43299662 9,6.5 C9,4.56700338 10.5670034,3 12.5,3 C14.4329966,3 16,4.56700338 16,6.5 C16,6.6579762 15.9895338,6.81350788 15.9692568,6.96593945 L15.9692568,6.96593945 Z"/>
</svg>
