<svg xmlns="http://www.w3.org/2000/svg" viewBox="0 0 16 16">
  <path fill="#777" d="M2.85833333,12.7083333 L7.06666667,12.7083333 C7.42565175,12.7083333 7.71666667,12.9993482 7.71666667,13.3583333 C7.71666667,13.6846834 7.47615847,13.9548598 7.1627189,14.0012857 L7.06666667,14.0083333 L2.85833333,14.0083333 C2.49934825,14.0083333 2.20833333,13.7173184 2.20833333,13.3583333 C2.20833333,13.0319833 2.44884153,12.7618069 2.7622811,12.715381 L2.85833333,12.7083333 L7.06666667,12.7083333 L2.85833333,12.7083333 Z M14.2981402,8.34858815 C14.6026765,8.62935581 14.6219449,9.10383847 14.3411772,9.40837483 L12.844,11.032 L14.3411772,12.6558768 C14.6219449,12.9604132 14.6026765,13.4348959 14.2981402,13.7156635 C14.021289,13.9709069 13.6039862,13.9781865 13.3194561,13.748598 L13.2383535,13.6726265 L11.824,12.138 L10.4097452,13.6726265 C10.1289775,13.9771629 9.65449486,13.9964312 9.3499585,13.7156635 C9.04542215,13.4348959 9.02615381,12.9604132 9.30692148,12.6558768 L10.803,11.032 L9.30692148,9.40837483 C9.02615381,9.10383847 9.04542215,8.62935581 9.3499585,8.34858815 C9.62680974,8.09334481 10.0441125,8.08606512 10.3286426,8.31565366 L10.4097452,8.39162517 L11.824,9.925 L13.2383535,8.39162517 C13.5191212,8.08708881 13.9936038,8.06782048 14.2981402,8.34858815 Z M2.9,2 L11.2333333,2 C11.7303896,2 12.1333333,2.40294373 12.1333333,2.9 C12.1333333,3.35882118 11.7899967,3.73745178 11.3462274,3.79298772 L11.2333333,3.8 L7.813,3.8 L6.47831826,10.4725263 C6.38083751,10.95993 5.90669491,11.2760251 5.41929113,11.1785443 C4.96937995,11.0885621 4.66543596,10.6776372 4.6980088,10.2315942 L4.71327305,10.1195172 L5.977,3.8 L2.9,3.8 C2.44117882,3.8 2.06254822,3.45666333 2.00701228,3.01289409 L2,2.9 C2,2.44117882 2.34333667,2.06254822 2.78710591,2.00701228 L2.9,2 Z"/>
</svg>
