<svg xmlns="http://www.w3.org/2000/svg" viewBox="0 0 16 16">
  <path fill="#777" d="M7.36782351,3.25 L5.8870439,10.653898 C5.78956315,11.1413018 5.31542055,11.4573969 4.82801677,11.3599161 C4.340613,11.2624354 4.02451793,10.7882928 4.12199869,10.300889 L5.53217649,3.25 L2.5,3.25 C2.08578644,3.25 1.75,2.91421356 1.75,2.5 C1.75,2.08578644 2.08578644,1.75 2.5,1.75 L10.5,1.75 C10.9142136,1.75 11.25,2.08578644 11.25,2.5 C11.25,2.91421356 10.9142136,3.25 10.5,3.25 L7.36782351,3.25 Z M11.364041,9.91537641 L12.6766702,8.49162517 C12.9574379,8.18708881 13.4319206,8.16782048 13.7364569,8.44858815 C14.0409933,8.72935581 14.0602616,9.20383847 13.7794939,9.50837483 L12.3841497,11.0218435 L13.7794939,12.5353121 C14.0602616,12.8398484 14.0409933,13.3143311 13.7364569,13.5950988 C13.4319206,13.8758664 12.9574379,13.8565981 12.6766702,13.5520618 L11.364041,12.1283105 L10.0514119,13.5520618 C9.77064419,13.8565981 9.29616153,13.8758664 8.99162517,13.5950988 C8.68708881,13.3143311 8.66782048,12.8398484 8.94858815,12.5353121 L10.3439324,11.0218435 L8.94858815,9.50837483 C8.66782048,9.20383847 8.68708881,8.72935581 8.99162517,8.44858815 C9.29616153,8.16782048 9.77064419,8.18708881 10.0514119,8.49162517 L11.364041,9.91537641 L11.364041,9.91537641 Z M7.5,12.5 C7.77614237,12.5 8,12.7238576 8,13 C8,13.2761424 7.77614237,13.5 7.5,13.5 L2.5,13.5 C2.22385763,13.5 2,13.2761424 2,13 C2,12.7238576 2.22385763,12.5 2.5,12.5 L7.5,12.5 Z"/>
</svg>
