<svg xmlns="http://www.w3.org/2000/svg" viewBox="0 0 16 16">
  <path d="M7.74351251,6.65555107 L13.65,6.65555107 C14.1470563,6.65555107 14.55,7.0584948 14.55,7.55555107 C14.55,8.05260735 14.1470563,8.45555107 13.65,8.45555107 L2.65,8.45555107 C2.15294373,8.45555107 1.75,8.05260735 1.75,7.55555107 C1.75,7.0584948 2.15294373,6.65555107 2.65,6.65555107 L4.9332995,6.65555107 C4.26695184,5.85918284 3.99676315,4.96417393 4.1534676,3.81957065 C4.61759168,0.429507851 9.60357576,0.203472564 11.8810657,2.56749101 C12.2259254,2.92545293 12.2153039,3.49520241 11.857342,3.8400621 C11.4993801,4.18492179 10.9296306,4.17430033 10.5847709,3.81633841 C9.19331995,2.37202216 6.14954697,2.51000898 5.93683187,4.0637261 C5.8005297,5.05930671 6.26975949,5.70255148 7.61659074,6.55825983 C7.66247414,6.58741182 7.70482285,6.62002811 7.74351251,6.65555107 Z M10.0134137,10.5355221 C9.79674562,10.0881745 9.98374827,9.5498834 10.4310959,9.33321527 C10.8784434,9.11654714 11.4167345,9.30354979 11.6334027,9.75089738 C12.7228655,12.0002755 11.7875005,13.8067148 9.6164273,14.4665474 C7.87615917,14.9954497 5.57060351,14.7144724 4.01345575,13.7612864 C3.58952007,13.5017802 3.45622366,12.9477411 3.71572989,12.5238054 C3.97523611,12.0998697 4.52927524,11.9665733 4.95321092,12.2260795 C6.06843192,12.9087463 7.84116878,13.1247892 9.09301074,12.7443293 C10.2561336,12.390833 10.5950219,11.7363493 10.0134137,10.5355221 Z"/>
</svg>
