<svg xmlns="http://www.w3.org/2000/svg" viewBox="0 0 16 16">
  <path fill="#777" d="M8.75,3.75 L8.75,7.75 L14.25,7.75 L14.25,4 C14.25,3.86192881 14.1380712,3.75 14,3.75 L8.75,3.75 Z M7.25,3.75 L2,3.75 C1.86192881,3.75 1.75,3.86192881 1.75,4 L1.75,7.75 L7.25,7.75 L7.25,3.75 Z M8.75,13.25 L14,13.25 C14.1380712,13.25 14.25,13.1380712 14.25,13 L14.25,9.25 L8.75,9.25 L8.75,13.25 Z M7.25,13.25 L7.25,9.25 L1.75,9.25 L1.75,13 C1.75,13.1380712 1.86192881,13.25 2,13.25 L7.25,13.25 Z M2,2.25 L14,2.25 C14.9664983,2.25 15.75,3.03350169 15.75,4 L15.75,13 C15.75,13.9664983 14.9664983,14.75 14,14.75 L2,14.75 C1.03350169,14.75 0.25,13.9664983 0.25,13 L0.25,4 C0.25,3.03350169 1.03350169,2.25 2,2.25 Z"/>
</svg>
