<svg xmlns="http://www.w3.org/2000/svg" viewBox="0 0 16 16">
  <path d="M8.75,3.25 L8.75,7.25 L14.25,7.25 L14.25,3.5 C14.25,3.36192881 14.1380712,3.25 14,3.25 L8.75,3.25 Z M7.25,3.25 L2,3.25 C1.86192881,3.25 1.75,3.36192881 1.75,3.5 L1.75,7.25 L7.25,7.25 L7.25,3.25 Z M8.75,12.75 L14,12.75 C14.1380712,12.75 14.25,12.6380712 14.25,12.5 L14.25,8.75 L8.75,8.75 L8.75,12.75 Z M7.25,12.75 L7.25,8.75 L1.75,8.75 L1.75,12.5 C1.75,12.6380712 1.86192881,12.75 2,12.75 L7.25,12.75 Z M2,1.75 L14,1.75 C14.9664983,1.75 15.75,2.53350169 15.75,3.5 L15.75,12.5 C15.75,13.4664983 14.9664983,14.25 14,14.25 L2,14.25 C1.03350169,14.25 0.25,13.4664983 0.25,12.5 L0.25,3.5 C0.25,2.53350169 1.03350169,1.75 2,1.75 Z"/>
</svg>
