<svg xmlns="http://www.w3.org/2000/svg" viewBox="0 0 16 16">
  <path d="M11.1 2L11.1 7C11.1 8.58113922 9.85384753 9.62124023 8 9.62124023 6.14615247 9.62124023 4.9 8.58113922 4.9 7L4.9 2C4.9 1.50294373 4.49705627 1.1 4 1.1 3.50294373 1.1 3.1 1.50294373 3.1 2L3.1 7C3.1 9.65449808 5.21674641 11.4212402 8 11.4212402 10.7832536 11.4212402 12.9 9.65449808 12.9 7L12.9 2C12.9 1.50294373 12.4970563 1.1 12 1.1 11.5029437 1.1 11.1 1.50294373 11.1 2zM4 14.4L12 14.4C12.4970563 14.4 12.9 13.9970563 12.9 13.5 12.9 13.0029437 12.4970563 12.6 12 12.6L4 12.6C3.50294373 12.6 3.1 13.0029437 3.1 13.5 3.1 13.9970563 3.50294373 14.4 4 14.4z"/>
</svg>
