<svg xmlns="http://www.w3.org/2000/svg" viewBox="0 0 16 16">
  <path fill="#777" d="M2.84126984,5.82539683 L0.903258148,5.82539683 C0.650291625,5.35131492 0.523809524,4.82486173 0.523809524,4.24603175 C0.523809524,3.29893706 0.859785,2.49206683 1.53174603,1.82539683 C2.20370706,1.15872683 3.01322278,0.825396825 3.96031746,0.825396825 C4.90741214,0.825396825 5.71428238,1.15872683 6.38095238,1.82539683 L8.80952381,4.25396825 C8.9576727,4.40211714 9.03174603,4.58200952 9.03174603,4.79365079 C9.03174603,5.00529206 8.9576727,5.18518444 8.80952381,5.33333333 C8.66137492,5.48148222 8.48148254,5.55555556 8.26984127,5.55555556 C8.0582,5.55555556 7.87830762,5.48148222 7.73015873,5.33333333 L5.3015873,2.9047619 C4.93121508,2.53438968 4.4841296,2.34920635 3.96031746,2.34920635 C3.43650532,2.34920635 2.98677437,2.53438968 2.61111111,2.9047619 C2.23544786,3.27513413 2.04761905,3.72486508 2.04761905,4.25396825 C2.04761905,4.78307143 2.23809333,5.23280238 2.61904762,5.6031746 L2.84126984,5.82539683 Z M11.83241,9.42539683 L13.9840855,9.42539683 L14.4603175,9.9047619 C15.1375695,10.5714319 15.4761905,11.3783021 15.4761905,12.3253968 C15.4761905,13.2724915 15.140215,14.0820072 14.468254,14.7539683 C13.7962929,15.4259293 12.9867772,15.7619048 12.0396825,15.7619048 C11.0925879,15.7619048 10.2857176,15.4285748 9.61904762,14.7619048 L7.19047619,12.3333333 C7.09523762,12.2380948 7.02910071,12.1243393 6.99206349,11.9920635 C6.95502627,11.8597877 6.95502627,11.7275139 6.99206349,11.5952381 C7.02910071,11.4629623 7.09523762,11.3492068 7.19047619,11.2539683 C7.33862508,11.1058194 7.51851746,11.031746 7.73015873,11.031746 C7.9418,11.031746 8.12169238,11.1058194 8.26984127,11.2539683 L10.6984127,13.6825397 C11.0687849,14.0529119 11.5158704,14.2380952 12.0396825,14.2380952 C12.5634947,14.2380952 13.0132256,14.0529119 13.3888889,13.6825397 C13.7645521,13.3121675 13.952381,12.8624365 13.952381,12.3333333 C13.952381,11.8042302 13.7619067,11.3544992 13.3809524,10.984127 L11.83241,9.42539683 Z M4.18377549,5.82539683 C3.8715968,5.4719167 3.88452321,4.9318908 4.2225547,4.5938593 C4.57402656,4.24238744 5.14387505,4.24238744 5.49534691,4.5938593 L6.72688443,5.82539683 L4.18377549,5.82539683 L4.18377549,5.82539683 Z M10.3268844,9.42539683 L11.1522012,10.2507136 C11.503673,10.6021854 11.503673,11.1720339 11.1522012,11.5235058 C10.8007293,11.8749776 10.2308808,11.8749776 9.87940895,11.5235058 L7.78130002,9.42539683 L10.3268844,9.42539683 Z M1,8.49090909 L15,8.49090909 C15.4970563,8.49090909 15.9,8.08796537 15.9,7.59090909 C15.9,7.09385282 15.4970563,6.69090909 15,6.69090909 L1,6.69090909 C0.502943725,6.69090909 0.1,7.09385282 0.1,7.59090909 C0.1,8.08796537 0.502943725,8.49090909 1,8.49090909 Z"/>
</svg>
