<svg xmlns="http://www.w3.org/2000/svg" width="15" height="15" viewBox="0 0 15 15">
  <g fill="none">
    <path fill="#231F20" d="M7.5,1 C11.08,1 14,3.92 14,7.5 C14,11.08 11.08,14 7.5,14 C3.92,14 1,11.08 1,7.5 C1,3.92 3.92,1 7.5,1 L7.5,1 Z M7.5,0 C3.36,0 0,3.36 0,7.5 C0,11.64 3.36,15 7.5,15 C11.64,15 15,11.64 15,7.5 C15,3.36 11.64,0 7.5,0 L7.5,0 Z"/>
    <path fill="#000" d="M7.5,11.03 C6.19,11.03 4.98,10.36 4.27,9.24 C4.12,9.01 4.19,8.7 4.42,8.55 C4.65,8.4 4.96,8.47 5.11,8.7 C5.64,9.53 6.53,10.02 7.5,10.02 C8.47,10.02 9.36,9.53 9.89,8.7 C10.04,8.47 10.35,8.4 10.58,8.55 C10.81,8.7 10.88,9.01 10.73,9.24 C10.02,10.36 8.81,11.03 7.5,11.03 Z"/>
    <circle cx="9.5" cy="5.7" r="1" fill="#000"/>
    <circle cx="5.5" cy="5.7" r="1" fill="#000"/>
  </g>
</svg>
