<svg xmlns="http://www.w3.org/2000/svg" viewBox="0 0 16 16">
  <path d="M8,16 C3.581722,16 0,12.418278 0,8 C0,3.581722 3.581722,0 8,0 C12.418278,0 16,3.581722 16,8 C16,12.418278 12.418278,16 8,16 Z M8,14.5 C11.5898509,14.5 14.5,11.5898509 14.5,8 C14.5,4.41014913 11.5898509,1.5 8,1.5 C4.41014913,1.5 1.5,4.41014913 1.5,8 C1.5,11.5898509 4.41014913,14.5 8,14.5 Z M10.8156668,9.62445553 C11.0230743,9.26590984 11.48187,9.14338812 11.8404157,9.3507956 C12.1989614,9.55820308 12.3214831,10.0169988 12.1140756,10.3755445 C11.2711181,11.8327666 9.7150647,12.75 8,12.75 C6.2849353,12.75 4.72888186,11.8327666 3.88592438,10.3755445 C3.6785169,10.0169988 3.80103862,9.55820308 4.15958431,9.3507956 C4.51813,9.14338812 4.9769257,9.26590984 5.18433318,9.62445553 C5.76183801,10.6227892 6.82587857,11.25 8,11.25 C9.17412143,11.25 10.238162,10.6227892 10.8156668,9.62445553 Z M11,7.5 C10.4477153,7.5 10,7.05228475 10,6.5 C10,5.94771525 10.4477153,5.5 11,5.5 C11.5522847,5.5 12,5.94771525 12,6.5 C12,7.05228475 11.5522847,7.5 11,7.5 Z M5,7.5 C4.44771525,7.5 4,7.05228475 4,6.5 C4,5.94771525 4.44771525,5.5 5,5.5 C5.55228475,5.5 6,5.94771525 6,6.5 C6,7.05228475 5.55228475,7.5 5,7.5 Z"/>
</svg>
